<svg width="40" height="41" viewBox="0 0 40 41" fill="none" xmlns="http://www.w3.org/2000/svg">
<path d="M16.8661 0.182856C8.60399 1.69853 2.11966 7.98912 0.262108 16.274C0.034188 17.3225 0 17.7555 0 20.0233C0 22.2911 0.034188 22.7242 0.262108 23.7726C0.649573 25.482 1.11681 26.8495 1.83476 28.3424C4.62678 34.1658 9.94872 38.3823 16.2735 39.7612C17.2764 39.9891 17.7778 40.0233 20 40.0233C22.2792 40.0233 22.7009 39.9891 23.7607 39.7612C25.5613 39.3509 26.6325 38.9863 28.1823 38.2569C34.1197 35.4307 38.3476 30.1202 39.7379 23.7498C39.9658 22.7356 40 22.2569 40 20.0233C40 17.7897 39.9658 17.3111 39.7379 16.2968C38.5869 11.0319 35.5328 6.51904 31.0199 3.40793C29.8006 2.56462 27.4074 1.35665 26.0969 0.923597C23.9544 0.217044 22.963 0.0574999 20.3989 0.0119158C18.4274 -0.0222722 17.8006 0.0119158 16.8661 0.182856ZM21.5726 2.41647C23.4986 2.54183 25.9943 3.30536 28.0114 4.38798C30.3818 5.66434 32.8547 7.84098 34.3932 9.99482C35.7721 11.9435 36.9003 14.5076 37.4017 16.8324C37.698 18.2227 37.698 21.8467 37.3903 23.2142C36.7293 26.2683 35.339 29.0262 33.2194 31.4877L32.3647 32.4792L32.2849 32.0347C32 30.633 31.0997 28.6615 30.188 27.4307C29.0028 25.8125 27.453 24.4905 25.7664 23.6472C25.2536 23.3965 24.8319 23.18 24.8205 23.1686C24.8091 23.1572 25.1852 22.7356 25.6752 22.2341C26.6667 21.2085 27.1795 20.4108 27.6011 19.2028C27.8519 18.5304 27.9088 18.1088 27.9544 16.9464C28.0114 15.2142 27.8405 14.3481 27.1567 12.9578C26.7692 12.1715 26.4843 11.7954 25.641 10.9635C23.9886 9.29967 22.3704 8.6273 20 8.6273C18.5185 8.6273 17.6068 8.83243 16.3533 9.44781C15.567 9.83528 15.1909 10.1202 14.359 10.9635C12.6952 12.6159 12.0228 14.2341 12.0228 16.6045C12.0228 18.9065 12.6952 20.5589 14.2678 22.1772C14.7806 22.7128 15.1909 23.1572 15.1795 23.1686C15.1681 23.18 14.7464 23.3965 14.2336 23.6472C12.547 24.4905 10.9972 25.8125 9.81197 27.4307C8.90028 28.6615 8 30.633 7.7151 32.0347L7.63533 32.4792L6.78063 31.4877C4.67236 29.0262 3.27066 26.2569 2.60969 23.2142C2.30199 21.8467 2.30199 18.2227 2.59829 16.8438C3.11111 14.4735 4.21652 11.9435 5.60684 9.99482C6.59829 8.6159 8.59259 6.6216 9.97151 5.63015C11.9202 4.25123 14.4843 3.12303 16.7521 2.64439C17.6752 2.45066 19.7151 2.25693 20.2279 2.31391C20.3875 2.3367 20.9915 2.38229 21.5726 2.41647ZM22.3134 11.4991C23.8063 12.217 24.9459 13.539 25.4245 15.1116C25.6296 15.784 25.6296 17.425 25.4245 18.0974C24.9459 19.67 23.7949 21.0034 22.3134 21.7099C21.4359 22.1316 21.4131 22.1316 20 22.1316C18.5869 22.1316 18.5641 22.1316 17.6866 21.7099C16.4672 21.1287 15.4758 20.1259 14.8946 18.9179C14.4729 18.0404 14.4729 18.0176 14.4729 16.6045C14.4729 15.1914 14.4729 15.1686 14.8946 14.2911C15.5897 12.8438 16.9003 11.6928 18.4615 11.18C18.7578 11.0774 19.3618 11.0319 20.1709 11.0547C21.3561 11.0774 21.4701 11.1002 22.3134 11.4991ZM21.2877 24.7527C22.1538 24.821 23.6467 25.2655 24.5014 25.6985C27.2934 27.1002 29.3333 29.7555 29.9715 32.7982C30.2678 34.2227 30.2564 34.2569 29.3219 34.8723C24.9117 37.7441 19.6695 38.4735 14.8262 36.878C13.6182 36.4678 11.7151 35.5561 10.6325 34.8381C9.75499 34.2569 9.7208 34.1772 10.0171 32.7868C10.9402 28.445 14.6553 25.1059 18.9858 24.7071C19.51 24.6615 20.0684 24.6387 20.2279 24.6501C20.3875 24.6729 20.8661 24.7185 21.2877 24.7527Z" fill="white"/>
</svg>
