<?xml version="1.0" standalone="no"?>
<!DOCTYPE svg PUBLIC "-//W3C//DTD SVG 20010904//EN"
 "http://www.w3.org/TR/2001/REC-SVG-20010904/DTD/svg10.dtd">
<svg version="1.0" xmlns="http://www.w3.org/2000/svg"
 width="512.000000pt" height="512.000000pt" viewBox="0 0 512.000000 512.000000"
 preserveAspectRatio="xMidYMid meet">
<metadata>
Created by potrace 1.16, written by Peter Selinger 2001-2019
</metadata>
<g transform="translate(0.000000,512.000000) scale(0.100000,-0.100000)"
fill="#000000" stroke="none">
<path d="M2285 5101 c-725 -133 -1294 -685 -1457 -1412 -20 -92 -23 -130 -23
-329 0 -199 3 -237 23 -329 34 -150 75 -270 138 -401 245 -511 712 -881 1267
-1002 88 -20 132 -23 327 -23 200 0 237 3 330 23 158 36 252 68 388 132 521
248 892 714 1014 1273 20 89 23 131 23 327 0 196 -3 238 -23 327 -101 462
-369 858 -765 1131 -107 74 -317 180 -432 218 -188 62 -275 76 -500 80 -173 3
-228 0 -310 -15z m413 -196 c169 -11 388 -78 565 -173 208 -112 425 -303 560
-492 121 -171 220 -396 264 -600 26 -122 26 -440 -1 -560 -58 -268 -180 -510
-366 -726 l-75 -87 -7 39 c-25 123 -104 296 -184 404 -104 142 -240 258 -388
332 -45 22 -82 41 -83 42 -1 1 32 38 75 82 87 90 132 160 169 266 22 59 27 96
31 198 5 152 -10 228 -70 350 -34 69 -59 102 -133 175 -145 146 -287 205 -495
205 -130 0 -210 -18 -320 -72 -69 -34 -102 -59 -175 -133 -146 -145 -205 -287
-205 -495 0 -202 59 -347 197 -489 45 -47 81 -86 80 -87 -1 -1 -38 -20 -83
-42 -148 -74 -284 -190 -388 -332 -80 -108 -159 -281 -184 -404 l-7 -39 -75
87 c-185 216 -308 459 -366 726 -27 120 -27 438 -1 559 45 208 142 430 264
601 87 121 262 296 383 383 171 121 396 220 595 262 81 17 260 34 305 29 14
-2 67 -6 118 -9z m65 -797 c131 -63 231 -179 273 -317 18 -59 18 -203 0 -262
-42 -138 -143 -255 -273 -317 -77 -37 -79 -37 -203 -37 -124 0 -126 0 -203 37
-107 51 -194 139 -245 245 -37 77 -37 79 -37 203 0 124 0 126 37 203 61 127
176 228 313 273 26 9 79 13 150 11 104 -2 114 -4 188 -39z m-90 -1163 c76 -6
207 -45 282 -83 245 -123 424 -356 480 -623 26 -125 25 -128 -57 -182 -387
-252 -847 -316 -1272 -176 -106 36 -273 116 -368 179 -77 51 -80 58 -54 180
81 381 407 674 787 709 46 4 95 6 109 5 14 -2 56 -6 93 -9z"/>
<path d="M902 1274 c-13 -9 -60 -91 -106 -183 l-84 -167 -183 -27 c-100 -15
-193 -34 -205 -42 -26 -17 -44 -70 -37 -109 4 -18 52 -73 140 -159 l135 -132
-32 -183 c-35 -198 -33 -225 14 -257 44 -32 91 -19 257 67 l159 83 159 -83
c166 -86 213 -99 257 -67 47 32 49 59 14 257 l-32 183 135 132 c88 86 136 141
140 159 7 40 -11 92 -38 110 -15 10 -96 26 -206 42 l-181 26 -83 167 c-47 92
-94 174 -107 183 -12 9 -38 16 -58 16 -20 0 -46 -7 -58 -16z m172 -529 c14 -9
71 -24 126 -32 l101 -16 -81 -82 c-90 -93 -89 -89 -64 -223 8 -46 13 -86 11
-89 -3 -2 -44 16 -91 41 -48 25 -100 46 -115 46 -16 0 -68 -21 -116 -46 -48
-25 -89 -43 -91 -41 -3 3 2 42 10 87 26 134 26 132 -64 225 l-81 82 101 16
c55 8 112 22 125 31 14 9 46 57 71 107 l45 91 44 -91 c25 -52 54 -97 69 -106z"/>
<path d="M2502 1274 c-13 -9 -60 -91 -106 -183 l-84 -167 -183 -27 c-100 -15
-193 -34 -205 -42 -26 -17 -44 -70 -37 -109 4 -18 52 -73 140 -159 l135 -132
-32 -183 c-35 -198 -33 -225 14 -257 44 -32 91 -19 257 67 l159 83 159 -83
c166 -86 213 -99 257 -67 47 32 49 59 14 257 l-32 183 135 132 c88 86 136 141
140 159 7 40 -11 92 -38 110 -15 10 -96 26 -206 42 l-181 26 -83 167 c-47 92
-94 174 -107 183 -12 9 -38 16 -58 16 -20 0 -46 -7 -58 -16z m172 -529 c14 -9
71 -24 126 -32 l101 -16 -81 -82 c-90 -93 -89 -89 -64 -223 8 -46 13 -86 11
-89 -3 -2 -44 16 -91 41 -48 25 -100 46 -115 46 -16 0 -68 -21 -116 -46 -48
-25 -89 -43 -91 -41 -3 3 2 42 10 87 26 134 26 132 -64 225 l-81 82 101 16
c55 8 112 22 125 31 14 9 46 57 71 107 l45 91 44 -91 c25 -52 54 -97 69 -106z"/>
<path d="M4102 1274 c-13 -9 -60 -91 -106 -183 l-84 -167 -183 -27 c-100 -15
-193 -34 -205 -42 -26 -17 -44 -70 -37 -109 4 -18 52 -73 140 -159 l135 -132
-32 -183 c-35 -198 -33 -225 14 -257 44 -32 91 -19 257 67 l159 83 159 -83
c166 -86 213 -99 257 -67 47 32 49 59 14 257 l-32 183 135 132 c88 86 136 141
140 159 7 40 -11 92 -38 110 -15 10 -96 26 -206 42 l-181 26 -83 167 c-47 92
-94 174 -107 183 -12 9 -38 16 -58 16 -20 0 -46 -7 -58 -16z m172 -529 c14 -9
71 -24 126 -32 l101 -16 -81 -82 c-90 -93 -89 -89 -64 -223 8 -46 13 -86 11
-89 -3 -2 -44 16 -91 41 -48 25 -100 46 -115 46 -16 0 -68 -21 -116 -46 -48
-25 -89 -43 -91 -41 -3 3 2 42 10 87 26 134 26 132 -64 225 l-81 82 101 16
c55 8 112 22 125 31 14 9 46 57 71 107 l45 91 44 -91 c25 -52 54 -97 69 -106z"/>
</g>
</svg>
